<svg width="800" height="190" viewBox="0 0 800 190" fill="none" xmlns="http://www.w3.org/2000/svg">
<g filter="url(#filter0_d_2_33)">
<path d="M74.392 69H57.4L32.728 43.944H22.552V69H4.6V45.768H5.944L15.352 36.36V4.296L11.128 0.0719948H40.216L49.528 9.384H74.392V25.8L57.016 42.696L65.464 51.048H74.392V69ZM4.6 43.368V0.0719948H7.384L13.048 5.736V34.92L4.6 43.368ZM74.392 7.08H50.968L43.96 0.0719948H74.392V7.08ZM56.44 26.088V18.216H22.552V26.088H56.44ZM153.606 69H144.198V67.08L134.79 57.672H102.822L93.4143 67.08V69H84.0063V0.0719948H93.4143V1.992L102.822 11.4H134.79L144.198 1.992V0.0719948H153.606V69ZM141.894 69H95.6223V68.52L104.262 59.976H133.35L141.894 68.52V69ZM133.35 9.096H104.262L95.6223 0.551994V0.0719948H141.894V0.551994L133.35 9.096ZM135.654 51.048V18.024H101.862V51.048H135.654ZM197.881 69L205.849 61.032H221.785V51.048H181.177V18.024H214.873V33.672H232.825V0.0719948H195.001L186.361 8.712H163.225V69H197.881ZM221.785 69V63.24H207.289L201.625 69H221.785ZM184.921 6.408L191.353 0.0719948H163.225V6.408H184.921ZM293.804 9.86399L302.444 1.32V0.0719948H295.724L286.316 9.86399H293.804ZM310.028 69L304.172 63.144V35.496L294.764 26.376L303.212 18.024H312.14V0.0719948H304.652V2.75999L295.244 12.168H284.012L270.476 26.088H260.3V9.192L253.868 2.75999V0.0719948H242.444V10.824H244.748L254.156 20.232V52.2L244.748 61.608H242.444V69H260.3V43.944H294.284V69H310.028ZM243.308 59.304L251.948 50.76V21.672L243.308 13.128H242.444V59.304H243.308ZM312.14 67.464V43.272L306.38 37.704V61.704L312.14 67.464ZM260.3 5.44799V0.0719948H256.172V1.32L260.3 5.44799ZM329.628 77.064L332.412 72.648V65.064H321.756V71.88H328.188V77.064H329.628ZM408.708 69V43.944H428.004L436.164 35.784H460.356V0.0719948H404.004V30.984L394.596 40.392H390.756V69H408.708ZM393.156 38.088L401.7 29.544V0.359997L401.412 0.0719948H390.756V38.088H393.156ZM460.356 43.944V38.088H437.604L431.748 43.944H460.356ZM442.5 26.088H408.708V18.024H442.5V26.088ZM539.575 69V59.688L531.223 51.336V19.368L539.575 11.112V0.0719948H505.207L478.903 26.376V52.2L469.975 61.224V69H487.831V43.944H521.623V69H539.575ZM469.975 57.48L476.695 50.76V28.68L469.975 35.4V57.48ZM539.575 55.944V14.76L533.527 20.808V49.896L539.575 55.944ZM521.623 26.088H504.535L512.599 18.024H521.623V26.088ZM567.146 69V43.944H586.442L594.602 35.784H618.794V0.0719948H562.442V30.984L553.034 40.392H549.194V69H567.146ZM551.594 38.088L560.138 29.544V0.359997L559.85 0.0719948H549.194V38.088H551.594ZM618.794 43.944V38.088H596.042L590.186 43.944H618.794ZM600.938 26.088H567.146V18.024H600.938V26.088ZM695.997 69V51.048H646.365V43.944H691.101V26.088H663.069L671.133 18.024H695.997V9.192H672.477L663.549 0.263998L628.413 35.4V69H641.085L649.437 60.648H681.501L689.853 69H695.997ZM686.109 69L680.061 62.952H650.877L644.829 69H686.109ZM695.997 6.984V0.0719948H667.101L673.917 6.984H695.997ZM775.361 69H758.369L733.697 43.944H723.521V69H705.569V45.768H706.913L716.321 36.36V4.296L712.097 0.0719948H741.185L750.497 9.384H775.361V25.8L757.985 42.696L766.433 51.048H775.361V69ZM705.569 43.368V0.0719948H708.353L714.017 5.736V34.92L705.569 43.368ZM775.361 7.08H751.937L744.929 0.0719948H775.361V7.08ZM757.409 26.088V18.216H723.521V26.088H757.409ZM792.847 77.064L795.631 72.648V65.064H784.975V71.88H791.407V77.064H792.847ZM60.376 179V169.4L69.784 159.992H74.392V153.752L55.864 135.8H22.552V128.024H65.848V110.072H43.384V111.512L33.976 120.92H4.6V135.8L23.128 153.752H56.44V161.048H4.6V179H60.376ZM74.392 179V162.296H71.224L62.68 170.84V179H74.392ZM32.536 118.616L41.08 110.072H4.6V118.616H32.536ZM118.662 179L126.63 171.032H142.566V161.048H101.958V128.024H135.654V143.672H153.606V110.072H115.782L107.142 118.712H84.0063V179H118.662ZM142.566 179V173.24H128.07L122.406 179H142.566ZM105.702 116.408L112.134 110.072H84.0063V116.408H105.702ZM181.177 179H163.225V110.072H181.177V119.096H178.681L169.273 128.504V160.568L178.681 169.976H181.177V179ZM181.177 167.672H180.121L171.577 159.128V129.944L180.121 121.4H181.177V167.672ZM246.564 179V169.4L255.972 159.992H260.58V153.752L242.052 135.8H208.74V128.024H252.036V110.072H229.572V111.512L220.164 120.92H190.788V135.8L209.316 153.752H242.628V161.048H190.788V179H246.564ZM260.58 179V162.296H257.412L248.868 170.84V179H260.58ZM218.724 118.616L227.268 110.072H190.788V118.616H218.724ZM325.97 179V169.4L335.378 159.992H339.986V153.752L321.458 135.8H288.146V128.024H331.442V110.072H308.978V111.512L299.57 120.92H270.194V135.8L288.722 153.752H322.034V161.048H270.194V179H325.97ZM339.986 179V162.296H336.818L328.274 170.84V179H339.986ZM298.13 118.616L306.674 110.072H270.194V118.616H298.13ZM419.2 179H409.792V177.08L400.384 167.672H368.416L359.008 177.08V179H349.6V110.072H359.008V111.992L368.416 121.4H400.384L409.792 111.992V110.072H419.2V179ZM407.488 179H361.216V178.52L369.856 169.976H398.944L407.488 178.52V179ZM398.944 119.096H369.856L361.216 110.552V110.072H407.488V110.552L398.944 119.096ZM401.248 161.048V128.024H367.456V161.048H401.248ZM498.611 179H481.619L456.947 153.944H446.771V179H428.819V155.768H430.163L439.571 146.36V114.296L435.347 110.072H464.435L473.747 119.384H498.611V135.8L481.235 152.696L489.683 161.048H498.611V179ZM428.819 153.368V110.072H431.603L437.267 115.736V144.92L428.819 153.368ZM498.611 117.08H475.187L468.179 110.072H498.611V117.08ZM480.659 136.088V128.216H446.771V136.088H480.659ZM564.001 179V169.4L573.409 159.992H578.017V153.752L559.489 135.8H526.177V128.024H569.473V110.072H547.009V111.512L537.601 120.92H508.225V135.8L526.753 153.752H560.065V161.048H508.225V179H564.001ZM578.017 179V162.296H574.849L566.305 170.84V179H578.017ZM536.161 118.616L544.705 110.072H508.225V118.616H536.161ZM598.287 181.88V175.064H587.631V181.88H598.287Z" fill="#7FFFD4"/>
<path d="M74.392 69V70H75.392V69H74.392ZM57.4 69L56.6875 69.7016L56.9813 70H57.4V69ZM32.728 43.944L33.4405 43.2424L33.1467 42.944H32.728V43.944ZM22.552 43.944V42.944H21.552V43.944H22.552ZM22.552 69V70H23.552V69H22.552ZM4.6 69H3.6V70H4.6V69ZM4.6 45.768V44.768H3.6V45.768H4.6ZM5.944 45.768V46.768H6.35821L6.65111 46.4751L5.944 45.768ZM15.352 36.36L16.0591 37.0671L16.352 36.7742V36.36H15.352ZM15.352 4.296H16.352V3.88178L16.0591 3.58889L15.352 4.296ZM11.128 0.0719948V-0.928005H8.71379L10.4209 0.7791L11.128 0.0719948ZM40.216 0.0719948L40.9231 -0.635113L40.6302 -0.928005H40.216V0.0719948ZM49.528 9.384L48.8209 10.0911L49.1138 10.384H49.528V9.384ZM74.392 9.384H75.392V8.384H74.392V9.384ZM74.392 25.8L75.0891 26.5169L75.392 26.2224V25.8H74.392ZM57.016 42.696L56.3189 41.9791L55.5877 42.6901L56.3129 43.4071L57.016 42.696ZM65.464 51.048L64.7609 51.7591L65.0531 52.048H65.464V51.048ZM74.392 51.048H75.392V50.048H74.392V51.048ZM4.6 43.368H3.6V45.7822L5.30711 44.0751L4.6 43.368ZM4.6 0.0719948V-0.928005H3.6V0.0719948H4.6ZM7.384 0.0719948L8.09111 -0.635113L7.79821 -0.928005H7.384V0.0719948ZM13.048 5.736H14.048V5.32178L13.7551 5.02889L13.048 5.736ZM13.048 34.92L13.7551 35.6271L14.048 35.3342V34.92H13.048ZM74.392 7.08V8.08H75.392V7.08H74.392ZM50.968 7.08L50.2609 7.7871L50.5538 8.08H50.968V7.08ZM43.96 0.0719948V-0.928005H41.5458L43.2529 0.7791L43.96 0.0719948ZM74.392 0.0719948H75.392V-0.928005H74.392V0.0719948ZM56.44 26.088V27.088H57.44V26.088H56.44ZM56.44 18.216H57.44V17.216H56.44V18.216ZM22.552 18.216V17.216H21.552V18.216H22.552ZM22.552 26.088H21.552V27.088H22.552V26.088ZM74.392 68H57.4V70H74.392V68ZM58.1125 68.2984L33.4405 43.2424L32.0155 44.6456L56.6875 69.7016L58.1125 68.2984ZM32.728 42.944H22.552V44.944H32.728V42.944ZM21.552 43.944V69H23.552V43.944H21.552ZM22.552 68H4.6V70H22.552V68ZM5.6 69V45.768H3.6V69H5.6ZM4.6 46.768H5.944V44.768H4.6V46.768ZM6.65111 46.4751L16.0591 37.0671L14.6449 35.6529L5.23689 45.0609L6.65111 46.4751ZM16.352 36.36V4.296H14.352V36.36H16.352ZM16.0591 3.58889L11.8351 -0.635111L10.4209 0.7791L14.6449 5.0031L16.0591 3.58889ZM11.128 1.07199H40.216V-0.928005H11.128V1.07199ZM39.5089 0.779102L48.8209 10.0911L50.2351 8.67689L40.9231 -0.635113L39.5089 0.779102ZM49.528 10.384H74.392V8.384H49.528V10.384ZM73.392 9.384V25.8H75.392V9.384H73.392ZM73.6949 25.0831L56.3189 41.9791L57.7131 43.4129L75.0891 26.5169L73.6949 25.0831ZM56.3129 43.4071L64.7609 51.7591L66.1671 50.3369L57.7191 41.9849L56.3129 43.4071ZM65.464 52.048H74.392V50.048H65.464V52.048ZM73.392 51.048V69H75.392V51.048H73.392ZM5.6 43.368V0.0719948H3.6V43.368H5.6ZM4.6 1.07199H7.384V-0.928005H4.6V1.07199ZM6.67689 0.779102L12.3409 6.4431L13.7551 5.02889L8.09111 -0.635113L6.67689 0.779102ZM12.048 5.736V34.92H14.048V5.736H12.048ZM12.3409 34.2129L3.89289 42.6609L5.30711 44.0751L13.7551 35.6271L12.3409 34.2129ZM74.392 6.08H50.968V8.08H74.392V6.08ZM51.6751 6.37289L44.6671 -0.635111L43.2529 0.7791L50.2609 7.7871L51.6751 6.37289ZM43.96 1.07199H74.392V-0.928005H43.96V1.07199ZM73.392 0.0719948V7.08H75.392V0.0719948H73.392ZM57.44 26.088V18.216H55.44V26.088H57.44ZM56.44 17.216H22.552V19.216H56.44V17.216ZM21.552 18.216V26.088H23.552V18.216H21.552ZM22.552 27.088H56.44V25.088H22.552V27.088ZM153.606 69V70H154.606V69H153.606ZM144.198 69H143.198V70H144.198V69ZM144.198 67.08H145.198V66.6658L144.905 66.3729L144.198 67.08ZM134.79 57.672L135.497 56.9649L135.204 56.672H134.79V57.672ZM102.822 57.672V56.672H102.408L102.115 56.9649L102.822 57.672ZM93.4143 67.08L92.7071 66.3729L92.4143 66.6658V67.08H93.4143ZM93.4143 69V70H94.4143V69H93.4143ZM84.0062 69H83.0062V70H84.0062V69ZM84.0062 0.0719948V-0.928005H83.0062V0.0719948H84.0062ZM93.4143 0.0719948H94.4143V-0.928005H93.4143V0.0719948ZM93.4143 1.992H92.4143V2.40621L92.7071 2.69911L93.4143 1.992ZM102.822 11.4L102.115 12.1071L102.408 12.4H102.822V11.4ZM134.79 11.4V12.4H135.204L135.497 12.1071L134.79 11.4ZM144.198 1.992L144.905 2.69911L145.198 2.40621V1.992H144.198ZM144.198 0.0719948V-0.928005H143.198V0.0719948H144.198ZM153.606 0.0719948H154.606V-0.928005H153.606V0.0719948ZM141.894 69V70H142.894V69H141.894ZM95.6223 69H94.6223V70H95.6223V69ZM95.6223 68.52L94.9191 67.809L94.6223 68.1025V68.52H95.6223ZM104.262 59.976V58.976H103.851L103.559 59.265L104.262 59.976ZM133.35 59.976L134.057 59.2689L133.764 58.976H133.35V59.976ZM141.894 68.52H142.894V68.1058L142.601 67.8129L141.894 68.52ZM133.35 9.096V10.096H133.764L134.057 9.8031L133.35 9.096ZM104.262 9.096L103.559 9.80704L103.851 10.096H104.262V9.096ZM95.6223 0.551994H94.6223V0.969484L94.9191 1.26304L95.6223 0.551994ZM95.6223 0.0719948V-0.928005H94.6223V0.0719948H95.6223ZM141.894 0.0719948H142.894V-0.928005H141.894V0.0719948ZM141.894 0.551994L142.601 1.2591L142.894 0.966208V0.551994H141.894ZM135.654 51.048V52.048H136.654V51.048H135.654ZM135.654 18.024H136.654V17.024H135.654V18.024ZM101.862 18.024V17.024H100.862V18.024H101.862ZM101.862 51.048H100.862V52.048H101.862V51.048ZM153.606 68H144.198V70H153.606V68ZM145.198 69V67.08H143.198V69H145.198ZM144.905 66.3729L135.497 56.9649L134.083 58.3791L143.491 67.7871L144.905 66.3729ZM134.79 56.672H102.822V58.672H134.79V56.672ZM102.115 56.9649L92.7071 66.3729L94.1214 67.7871L103.529 58.3791L102.115 56.9649ZM92.4143 67.08V69H94.4143V67.08H92.4143ZM93.4143 68H84.0062V70H93.4143V68ZM85.0062 69V0.0719948H83.0062V69H85.0062ZM84.0062 1.07199H93.4143V-0.928005H84.0062V1.07199ZM92.4143 0.0719948V1.992H94.4143V0.0719948H92.4143ZM92.7071 2.69911L102.115 12.1071L103.529 10.6929L94.1214 1.28489L92.7071 2.69911ZM102.822 12.4H134.79V10.4H102.822V12.4ZM135.497 12.1071L144.905 2.69911L143.491 1.28489L134.083 10.6929L135.497 12.1071ZM145.198 1.992V0.0719948H143.198V1.992H145.198ZM144.198 1.07199H153.606V-0.928005H144.198V1.07199ZM152.606 0.0719948V69H154.606V0.0719948H152.606ZM141.894 68H95.6223V70H141.894V68ZM96.6223 69V68.52H94.6223V69H96.6223ZM96.3254 69.231L104.965 60.687L103.559 59.265L94.9191 67.809L96.3254 69.231ZM104.262 60.976H133.35V58.976H104.262V60.976ZM132.643 60.6831L141.187 69.2271L142.601 67.8129L134.057 59.2689L132.643 60.6831ZM140.894 68.52V69H142.894V68.52H140.894ZM133.35 8.096H104.262V10.096H133.35V8.096ZM104.965 8.38495L96.3254 -0.159052L94.9191 1.26304L103.559 9.80704L104.965 8.38495ZM96.6223 0.551994V0.0719948H94.6223V0.551994H96.6223ZM95.6223 1.07199H141.894V-0.928005H95.6223V1.07199ZM140.894 0.0719948V0.551994H142.894V0.0719948H140.894ZM141.187 -0.155111L132.643 8.38889L134.057 9.8031L142.601 1.2591L141.187 -0.155111ZM136.654 51.048V18.024H134.654V51.048H136.654ZM135.654 17.024H101.862V19.024H135.654V17.024ZM100.862 18.024V51.048H102.862V18.024H100.862ZM101.862 52.048H135.654V50.048H101.862V52.048ZM197.881 69V70H198.295L198.588 69.7071L197.881 69ZM205.849 61.032V60.032H205.435L205.142 60.3249L205.849 61.032ZM221.785 61.032V62.032H222.785V61.032H221.785ZM221.785 51.048H222.785V50.048H221.785V51.048ZM181.177 51.048H180.177V52.048H181.177V51.048ZM181.177 18.024V17.024H180.177V18.024H181.177ZM214.873 18.024H215.873V17.024H214.873V18.024ZM214.873 33.672H213.873V34.672H214.873V33.672ZM232.825 33.672V34.672H233.825V33.672H232.825ZM232.825 0.0719948H233.825V-0.928005H232.825V0.0719948ZM195.001 0.0719948V-0.928005H194.587L194.294 -0.635113L195.001 0.0719948ZM186.361 8.712V9.712H186.775L187.068 9.41911L186.361 8.712ZM163.225 8.712V7.712H162.225V8.712H163.225ZM163.225 69H162.225V70H163.225V69ZM221.785 69V70H222.785V69H221.785ZM221.785 63.24H222.785V62.24H221.785V63.24ZM207.289 63.24V62.24H206.87L206.576 62.5389L207.289 63.24ZM201.625 69L200.912 68.2989L199.239 70H201.625V69ZM184.921 6.408V7.408H185.331L185.623 7.1204L184.921 6.408ZM191.353 0.0719948L192.055 0.784397L193.793 -0.928005H191.353V0.0719948ZM163.225 0.0719948V-0.928005H162.225V0.0719948H163.225ZM163.225 6.408H162.225V7.408H163.225V6.408ZM198.588 69.7071L206.556 61.7391L205.142 60.3249L197.174 68.2929L198.588 69.7071ZM205.849 62.032H221.785V60.032H205.849V62.032ZM222.785 61.032V51.048H220.785V61.032H222.785ZM221.785 50.048H181.177V52.048H221.785V50.048ZM182.177 51.048V18.024H180.177V51.048H182.177ZM181.177 19.024H214.873V17.024H181.177V19.024ZM213.873 18.024V33.672H215.873V18.024H213.873ZM214.873 34.672H232.825V32.672H214.873V34.672ZM233.825 33.672V0.0719948H231.825V33.672H233.825ZM232.825 -0.928005H195.001V1.07199H232.825V-0.928005ZM194.294 -0.635113L185.654 8.00489L187.068 9.41911L195.708 0.779102L194.294 -0.635113ZM186.361 7.712H163.225V9.712H186.361V7.712ZM162.225 8.712V69H164.225V8.712H162.225ZM163.225 70H197.881V68H163.225V70ZM222.785 69V63.24H220.785V69H222.785ZM221.785 62.24H207.289V64.24H221.785V62.24ZM206.576 62.5389L200.912 68.2989L202.338 69.7011L208.002 63.9411L206.576 62.5389ZM201.625 70H221.785V68H201.625V70ZM185.623 7.1204L192.055 0.784397L190.651 -0.640408L184.219 5.6956L185.623 7.1204ZM191.353 -0.928005H163.225V1.07199H191.353V-0.928005ZM162.225 0.0719948V6.408H164.225V0.0719948H162.225ZM163.225 7.408H184.921V5.408H163.225V7.408ZM293.804 9.86399V10.864H294.215L294.507 10.575L293.804 9.86399ZM302.444 1.32L303.147 2.03104L303.444 1.73749V1.32H302.444ZM302.444 0.0719948H303.444V-0.928005H302.444V0.0719948ZM295.724 0.0719948V-0.928005H295.298L295.003 -0.620831L295.724 0.0719948ZM286.316 9.86399L285.595 9.17117L283.968 10.864H286.316V9.86399ZM310.028 69V70H312.442L310.735 68.2929L310.028 69ZM304.172 63.144H303.172V63.5582L303.465 63.8511L304.172 63.144ZM304.172 35.496H305.172V35.0727L304.868 34.778L304.172 35.496ZM294.764 26.376L294.061 25.6649L293.334 26.383L294.068 27.094L294.764 26.376ZM303.212 18.024V17.024H302.801L302.509 17.3129L303.212 18.024ZM312.14 18.024V19.024H313.14V18.024H312.14ZM312.14 0.0719948H313.14V-0.928005H312.14V0.0719948ZM304.652 0.0719948V-0.928005H303.652V0.0719948H304.652ZM304.652 2.75999L305.359 3.4671L305.652 3.17421V2.75999H304.652ZM295.244 12.168V13.168H295.658L295.951 12.8751L295.244 12.168ZM284.012 12.168V11.168H283.589L283.295 11.4708L284.012 12.168ZM270.476 26.088V27.088H270.898L271.193 26.7851L270.476 26.088ZM260.3 26.088H259.3V27.088H260.3V26.088ZM260.3 9.192H261.3V8.77778L261.007 8.48489L260.3 9.192ZM253.868 2.75999H252.868V3.17421L253.161 3.4671L253.868 2.75999ZM253.868 0.0719948H254.868V-0.928005H253.868V0.0719948ZM242.444 0.0719948V-0.928005H241.444V0.0719948H242.444ZM242.444 10.824H241.444V11.824H242.444V10.824ZM244.748 10.824L245.455 10.1169L245.162 9.824H244.748V10.824ZM254.156 20.232H255.156V19.8178L254.863 19.5249L254.156 20.232ZM254.156 52.2L254.863 52.9071L255.156 52.6142V52.2H254.156ZM244.748 61.608V62.608H245.162L245.455 62.3151L244.748 61.608ZM242.444 61.608V60.608H241.444V61.608H242.444ZM242.444 69H241.444V70H242.444V69ZM260.3 69V70H261.3V69H260.3ZM260.3 43.944V42.944H259.3V43.944H260.3ZM294.284 43.944H295.284V42.944H294.284V43.944ZM294.284 69H293.284V70H294.284V69ZM243.308 59.304V60.304H243.719L244.011 60.015L243.308 59.304ZM251.948 50.76L252.651 51.471L252.948 51.1775V50.76H251.948ZM251.948 21.672H252.948V21.2545L252.651 20.961L251.948 21.672ZM243.308 13.128L244.011 12.417L243.719 12.128H243.308V13.128ZM242.444 13.128V12.128H241.444V13.128H242.444ZM242.444 59.304H241.444V60.304H242.444V59.304ZM312.14 67.464L311.433 68.1711L313.14 69.8782V67.464H312.14ZM312.14 43.272H313.14V42.8478L312.835 42.553L312.14 43.272ZM306.38 37.704L307.075 36.985L305.38 35.3465V37.704H306.38ZM306.38 61.704H305.38V62.1182L305.673 62.4111L306.38 61.704ZM260.3 5.44799L259.593 6.1551L261.3 7.86221V5.44799H260.3ZM260.3 0.0719948H261.3V-0.928005H260.3V0.0719948ZM256.172 0.0719948V-0.928005H255.172V0.0719948H256.172ZM256.172 1.32H255.172V1.73421L255.465 2.0271L256.172 1.32ZM294.507 10.575L303.147 2.03104L301.741 0.60895L293.101 9.15295L294.507 10.575ZM303.444 1.32V0.0719948H301.444V1.32H303.444ZM302.444 -0.928005H295.724V1.07199H302.444V-0.928005ZM295.003 -0.620831L285.595 9.17117L287.037 10.5568L296.445 0.76482L295.003 -0.620831ZM286.316 10.864H293.804V8.86399H286.316V10.864ZM310.735 68.2929L304.879 62.4369L303.465 63.8511L309.321 69.7071L310.735 68.2929ZM305.172 63.144V35.496H303.172V63.144H305.172ZM304.868 34.778L295.46 25.658L294.068 27.094L303.476 36.214L304.868 34.778ZM295.467 27.0871L303.915 18.7351L302.509 17.3129L294.061 25.6649L295.467 27.0871ZM303.212 19.024H312.14V17.024H303.212V19.024ZM313.14 18.024V0.0719948H311.14V18.024H313.14ZM312.14 -0.928005H304.652V1.07199H312.14V-0.928005ZM303.652 0.0719948V2.75999H305.652V0.0719948H303.652ZM303.945 2.05289L294.537 11.4609L295.951 12.8751L305.359 3.4671L303.945 2.05289ZM295.244 11.168H284.012V13.168H295.244V11.168ZM283.295 11.4708L269.759 25.3909L271.193 26.7851L284.729 12.8651L283.295 11.4708ZM270.476 25.088H260.3V27.088H270.476V25.088ZM261.3 26.088V9.192H259.3V26.088H261.3ZM261.007 8.48489L254.575 2.05289L253.161 3.4671L259.593 9.89911L261.007 8.48489ZM254.868 2.75999V0.0719948H252.868V2.75999H254.868ZM253.868 -0.928005H242.444V1.07199H253.868V-0.928005ZM241.444 0.0719948V10.824H243.444V0.0719948H241.444ZM242.444 11.824H244.748V9.824H242.444V11.824ZM244.041 11.5311L253.449 20.9391L254.863 19.5249L245.455 10.1169L244.041 11.5311ZM253.156 20.232V52.2H255.156V20.232H253.156ZM253.449 51.4929L244.041 60.9009L245.455 62.3151L254.863 52.9071L253.449 51.4929ZM244.748 60.608H242.444V62.608H244.748V60.608ZM241.444 61.608V69H243.444V61.608H241.444ZM242.444 70H260.3V68H242.444V70ZM261.3 69V43.944H259.3V69H261.3ZM260.3 44.944H294.284V42.944H260.3V44.944ZM293.284 43.944V69H295.284V43.944H293.284ZM294.284 70H310.028V68H294.284V70ZM244.011 60.015L252.651 51.471L251.245 50.049L242.605 58.593L244.011 60.015ZM252.948 50.76V21.672H250.948V50.76H252.948ZM252.651 20.961L244.011 12.417L242.605 13.839L251.245 22.383L252.651 20.961ZM243.308 12.128H242.444V14.128H243.308V12.128ZM241.444 13.128V59.304H243.444V13.128H241.444ZM242.444 60.304H243.308V58.304H242.444V60.304ZM313.14 67.464V43.272H311.14V67.464H313.14ZM312.835 42.553L307.075 36.985L305.685 38.423L311.445 43.991L312.835 42.553ZM305.38 37.704V61.704H307.38V37.704H305.38ZM305.673 62.4111L311.433 68.1711L312.847 66.7569L307.087 60.9969L305.673 62.4111ZM261.3 5.44799V0.0719948H259.3V5.44799H261.3ZM260.3 -0.928005H256.172V1.07199H260.3V-0.928005ZM255.172 0.0719948V1.32H257.172V0.0719948H255.172ZM255.465 2.0271L259.593 6.1551L261.007 4.74089L256.879 0.612888L255.465 2.0271ZM329.628 77.064V78.064H330.18L330.474 77.5973L329.628 77.064ZM332.412 72.648L333.258 73.1813L333.412 72.9369V72.648H332.412ZM332.412 65.064H333.412V64.064H332.412V65.064ZM321.756 65.064V64.064H320.756V65.064H321.756ZM321.756 71.88H320.756V72.88H321.756V71.88ZM328.188 71.88H329.188V70.88H328.188V71.88ZM328.188 77.064H327.188V78.064H328.188V77.064ZM330.474 77.5973L333.258 73.1813L331.566 72.1147L328.782 76.5307L330.474 77.5973ZM333.412 72.648V65.064H331.412V72.648H333.412ZM332.412 64.064H321.756V66.064H332.412V64.064ZM320.756 65.064V71.88H322.756V65.064H320.756ZM321.756 72.88H328.188V70.88H321.756V72.88ZM327.188 71.88V77.064H329.188V71.88H327.188ZM328.188 78.064H329.628V76.064H328.188V78.064ZM408.708 69V70H409.708V69H408.708ZM408.708 43.944V42.944H407.708V43.944H408.708ZM428.004 43.944V44.944H428.418L428.711 44.6511L428.004 43.944ZM436.164 35.784V34.784H435.75L435.457 35.0769L436.164 35.784ZM460.356 35.784V36.784H461.356V35.784H460.356ZM460.356 0.0719948H461.356V-0.928005H460.356V0.0719948ZM404.004 0.0719948V-0.928005H403.004V0.0719948H404.004ZM404.004 30.984L404.711 31.6911L405.004 31.3982V30.984H404.004ZM394.596 40.392V41.392H395.01L395.303 41.0991L394.596 40.392ZM390.756 40.392V39.392H389.756V40.392H390.756ZM390.756 69H389.756V70H390.756V69ZM393.156 38.088V39.088H393.57L393.863 38.7951L393.156 38.088ZM401.7 29.544L402.407 30.2511L402.7 29.9582V29.544H401.7ZM401.7 0.359997H402.7V-0.0542145L402.407 -0.347109L401.7 0.359997ZM401.412 0.0719948L402.119 -0.635111L401.826 -0.928005H401.412V0.0719948ZM390.756 0.0719948V-0.928005H389.756V0.0719948H390.756ZM390.756 38.088H389.756V39.088H390.756V38.088ZM460.356 43.944V44.944H461.356V43.944H460.356ZM460.356 38.088H461.356V37.088H460.356V38.088ZM437.604 38.088V37.088H437.19L436.897 37.3809L437.604 38.088ZM431.748 43.944L431.041 43.2369L429.334 44.944H431.748V43.944ZM442.5 26.088V27.088H443.5V26.088H442.5ZM408.708 26.088H407.708V27.088H408.708V26.088ZM408.708 18.024V17.024H407.708V18.024H408.708ZM442.5 18.024H443.5V17.024H442.5V18.024ZM409.708 69V43.944H407.708V69H409.708ZM408.708 44.944H428.004V42.944H408.708V44.944ZM428.711 44.6511L436.871 36.4911L435.457 35.0769L427.297 43.2369L428.711 44.6511ZM436.164 36.784H460.356V34.784H436.164V36.784ZM461.356 35.784V0.0719948H459.356V35.784H461.356ZM460.356 -0.928005H404.004V1.07199H460.356V-0.928005ZM403.004 0.0719948V30.984H405.004V0.0719948H403.004ZM403.297 30.2769L393.889 39.6849L395.303 41.0991L404.711 31.6911L403.297 30.2769ZM394.596 39.392H390.756V41.392H394.596V39.392ZM389.756 40.392V69H391.756V40.392H389.756ZM390.756 70H408.708V68H390.756V70ZM393.863 38.7951L402.407 30.2511L400.993 28.8369L392.449 37.3809L393.863 38.7951ZM402.7 29.544V0.359997H400.7V29.544H402.7ZM402.407 -0.347109L402.119 -0.635111L400.705 0.7791L400.993 1.0671L402.407 -0.347109ZM401.412 -0.928005H390.756V1.07199H401.412V-0.928005ZM389.756 0.0719948V38.088H391.756V0.0719948H389.756ZM390.756 39.088H393.156V37.088H390.756V39.088ZM461.356 43.944V38.088H459.356V43.944H461.356ZM460.356 37.088H437.604V39.088H460.356V37.088ZM436.897 37.3809L431.041 43.2369L432.455 44.6511L438.311 38.7951L436.897 37.3809ZM431.748 44.944H460.356V42.944H431.748V44.944ZM442.5 25.088H408.708V27.088H442.5V25.088ZM409.708 26.088V18.024H407.708V26.088H409.708ZM408.708 19.024H442.5V17.024H408.708V19.024ZM441.5 18.024V26.088H443.5V18.024H441.5ZM539.575 69V70H540.575V69H539.575ZM539.575 59.688H540.575V59.2738L540.282 58.9809L539.575 59.688ZM531.223 51.336H530.223V51.7502L530.516 52.0431L531.223 51.336ZM531.223 19.368L530.52 18.6568L530.223 18.9504V19.368H531.223ZM539.575 11.112L540.278 11.8232L540.575 11.5296V11.112H539.575ZM539.575 0.0719948H540.575V-0.928005H539.575V0.0719948ZM505.207 0.0719948V-0.928005H504.793L504.5 -0.635113L505.207 0.0719948ZM478.903 26.376L478.196 25.6689L477.903 25.9618V26.376H478.903ZM478.903 52.2L479.614 52.9033L479.903 52.6111V52.2H478.903ZM469.975 61.224L469.264 60.5207L468.975 60.8129V61.224H469.975ZM469.975 69H468.975V70H469.975V69ZM487.831 69V70H488.831V69H487.831ZM487.831 43.944V42.944H486.831V43.944H487.831ZM521.623 43.944H522.623V42.944H521.623V43.944ZM521.623 69H520.623V70H521.623V69ZM469.975 57.48H468.975V59.8942L470.682 58.1871L469.975 57.48ZM476.695 50.76L477.402 51.4671L477.695 51.1742V50.76H476.695ZM476.695 28.68H477.695V26.2658L475.988 27.9729L476.695 28.68ZM469.975 35.4L469.268 34.6929L468.975 34.9858V35.4H469.975ZM539.575 55.944L538.868 56.6511L540.575 58.3582V55.944H539.575ZM539.575 14.76H540.575V12.3458L538.868 14.0529L539.575 14.76ZM533.527 20.808L532.82 20.1009L532.527 20.3938V20.808H533.527ZM533.527 49.896H532.527V50.3102L532.82 50.6031L533.527 49.896ZM521.623 26.088V27.088H522.623V26.088H521.623ZM504.535 26.088L503.828 25.3809L502.121 27.088H504.535V26.088ZM512.599 18.024V17.024H512.185L511.892 17.3169L512.599 18.024ZM521.623 18.024H522.623V17.024H521.623V18.024ZM540.575 69V59.688H538.575V69H540.575ZM540.282 58.9809L531.93 50.6289L530.516 52.0431L538.868 60.3951L540.282 58.9809ZM532.223 51.336V19.368H530.223V51.336H532.223ZM531.926 20.0792L540.278 11.8232L538.872 10.4008L530.52 18.6568L531.926 20.0792ZM540.575 11.112V0.0719948H538.575V11.112H540.575ZM539.575 -0.928005H505.207V1.07199H539.575V-0.928005ZM504.5 -0.635113L478.196 25.6689L479.61 27.0831L505.914 0.779102L504.5 -0.635113ZM477.903 26.376V52.2H479.903V26.376H477.903ZM478.192 51.4967L469.264 60.5207L470.686 61.9273L479.614 52.9033L478.192 51.4967ZM468.975 61.224V69H470.975V61.224H468.975ZM469.975 70H487.831V68H469.975V70ZM488.831 69V43.944H486.831V69H488.831ZM487.831 44.944H521.623V42.944H487.831V44.944ZM520.623 43.944V69H522.623V43.944H520.623ZM521.623 70H539.575V68H521.623V70ZM470.682 58.1871L477.402 51.4671L475.988 50.0529L469.268 56.7729L470.682 58.1871ZM477.695 50.76V28.68H475.695V50.76H477.695ZM475.988 27.9729L469.268 34.6929L470.682 36.1071L477.402 29.3871L475.988 27.9729ZM468.975 35.4V57.48H470.975V35.4H468.975ZM540.575 55.944V14.76H538.575V55.944H540.575ZM538.868 14.0529L532.82 20.1009L534.234 21.5151L540.282 15.4671L538.868 14.0529ZM532.527 20.808V49.896H534.527V20.808H532.527ZM532.82 50.6031L538.868 56.6511L540.282 55.2369L534.234 49.1889L532.82 50.6031ZM521.623 25.088H504.535V27.088H521.623V25.088ZM505.242 26.7951L513.306 18.7311L511.892 17.3169L503.828 25.3809L505.242 26.7951ZM512.599 19.024H521.623V17.024H512.599V19.024ZM520.623 18.024V26.088H522.623V18.024H520.623ZM567.146 69V70H568.146V69H567.146ZM567.146 43.944V42.944H566.146V43.944H567.146ZM586.442 43.944V44.944H586.856L587.149 44.6511L586.442 43.944ZM594.602 35.784V34.784H594.188L593.895 35.0769L594.602 35.784ZM618.794 35.784V36.784H619.794V35.784H618.794ZM618.794 0.0719948H619.794V-0.928005H618.794V0.0719948ZM562.442 0.0719948V-0.928005H561.442V0.0719948H562.442ZM562.442 30.984L563.149 31.6911L563.442 31.3982V30.984H562.442ZM553.034 40.392V41.392H553.448L553.741 41.0991L553.034 40.392ZM549.194 40.392V39.392H548.194V40.392H549.194ZM549.194 69H548.194V70H549.194V69ZM551.594 38.088V39.088H552.008L552.301 38.7951L551.594 38.088ZM560.138 29.544L560.845 30.2511L561.138 29.9582V29.544H560.138ZM560.138 0.359997H561.138V-0.0542145L560.845 -0.347109L560.138 0.359997ZM559.85 0.0719948L560.557 -0.635111L560.264 -0.928005H559.85V0.0719948ZM549.194 0.0719948V-0.928005H548.194V0.0719948H549.194ZM549.194 38.088H548.194V39.088H549.194V38.088ZM618.794 43.944V44.944H619.794V43.944H618.794ZM618.794 38.088H619.794V37.088H618.794V38.088ZM596.042 38.088V37.088H595.628L595.335 37.3809L596.042 38.088ZM590.186 43.944L589.479 43.2369L587.772 44.944H590.186V43.944ZM600.938 26.088V27.088H601.938V26.088H600.938ZM567.146 26.088H566.146V27.088H567.146V26.088ZM567.146 18.024V17.024H566.146V18.024H567.146ZM600.938 18.024H601.938V17.024H600.938V18.024ZM568.146 69V43.944H566.146V69H568.146ZM567.146 44.944H586.442V42.944H567.146V44.944ZM587.149 44.6511L595.309 36.4911L593.895 35.0769L585.735 43.2369L587.149 44.6511ZM594.602 36.784H618.794V34.784H594.602V36.784ZM619.794 35.784V0.0719948H617.794V35.784H619.794ZM618.794 -0.928005H562.442V1.07199H618.794V-0.928005ZM561.442 0.0719948V30.984H563.442V0.0719948H561.442ZM561.735 30.2769L552.327 39.6849L553.741 41.0991L563.149 31.6911L561.735 30.2769ZM553.034 39.392H549.194V41.392H553.034V39.392ZM548.194 40.392V69H550.194V40.392H548.194ZM549.194 70H567.146V68H549.194V70ZM552.301 38.7951L560.845 30.2511L559.431 28.8369L550.887 37.3809L552.301 38.7951ZM561.138 29.544V0.359997H559.138V29.544H561.138ZM560.845 -0.347109L560.557 -0.635111L559.143 0.7791L559.431 1.0671L560.845 -0.347109ZM559.85 -0.928005H549.194V1.07199H559.85V-0.928005ZM548.194 0.0719948V38.088H550.194V0.0719948H548.194ZM549.194 39.088H551.594V37.088H549.194V39.088ZM619.794 43.944V38.088H617.794V43.944H619.794ZM618.794 37.088H596.042V39.088H618.794V37.088ZM595.335 37.3809L589.479 43.2369L590.893 44.6511L596.749 38.7951L595.335 37.3809ZM590.186 44.944H618.794V42.944H590.186V44.944ZM600.938 25.088H567.146V27.088H600.938V25.088ZM568.146 26.088V18.024H566.146V26.088H568.146ZM567.146 19.024H600.938V17.024H567.146V19.024ZM599.938 18.024V26.088H601.938V18.024H599.938ZM695.997 69V70H696.997V69H695.997ZM695.997 51.048H696.997V50.048H695.997V51.048ZM646.365 51.048H645.365V52.048H646.365V51.048ZM646.365 43.944V42.944H645.365V43.944H646.365ZM691.101 43.944V44.944H692.101V43.944H691.101ZM691.101 26.088H692.101V25.088H691.101V26.088ZM663.068 26.088L662.361 25.3809L660.654 27.088H663.068V26.088ZM671.133 18.024V17.024H670.718L670.425 17.3169L671.133 18.024ZM695.997 18.024V19.024H696.997V18.024H695.997ZM695.997 9.192H696.997V8.192H695.997V9.192ZM672.477 9.192L671.769 9.89911L672.062 10.192H672.477V9.192ZM663.549 0.263998L664.256 -0.44311L663.549 -1.15022L662.841 -0.44311L663.549 0.263998ZM628.412 35.4L627.705 34.6929L627.412 34.9858V35.4H628.412ZM628.412 69H627.412V70H628.412V69ZM641.084 69V70H641.499L641.792 69.7071L641.084 69ZM649.437 60.648V59.648H649.022L648.729 59.9409L649.437 60.648ZM681.5 60.648L682.208 59.9409L681.915 59.648H681.5V60.648ZM689.852 69L689.145 69.7071L689.438 70H689.852V69ZM686.109 69V70H688.523L686.816 68.2929L686.109 69ZM680.06 62.952L680.768 62.2449L680.475 61.952H680.06V62.952ZM650.877 62.952V61.952H650.462L650.169 62.2449L650.877 62.952ZM644.828 69L644.121 68.2929L642.414 70H644.828V69ZM695.997 6.984V7.984H696.997V6.984H695.997ZM695.997 0.0719948H696.997V-0.928005H695.997V0.0719948ZM667.101 0.0719948V-0.928005H664.71L666.388 0.774139L667.101 0.0719948ZM673.917 6.984L673.204 7.68614L673.498 7.984H673.917V6.984ZM696.997 69V51.048H694.997V69H696.997ZM695.997 50.048H646.365V52.048H695.997V50.048ZM647.365 51.048V43.944H645.365V51.048H647.365ZM646.365 44.944H691.101V42.944H646.365V44.944ZM692.101 43.944V26.088H690.101V43.944H692.101ZM691.101 25.088H663.068V27.088H691.101V25.088ZM663.776 26.7951L671.84 18.7311L670.425 17.3169L662.361 25.3809L663.776 26.7951ZM671.133 19.024H695.997V17.024H671.133V19.024ZM696.997 18.024V9.192H694.997V18.024H696.997ZM695.997 8.192H672.477V10.192H695.997V8.192ZM673.184 8.48489L664.256 -0.44311L662.841 0.971106L671.769 9.89911L673.184 8.48489ZM662.841 -0.44311L627.705 34.6929L629.12 36.1071L664.256 0.971106L662.841 -0.44311ZM627.412 35.4V69H629.412V35.4H627.412ZM628.412 70H641.084V68H628.412V70ZM641.792 69.7071L650.144 61.3551L648.729 59.9409L640.377 68.2929L641.792 69.7071ZM649.437 61.648H681.5V59.648H649.437V61.648ZM680.793 61.3551L689.145 69.7071L690.56 68.2929L682.208 59.9409L680.793 61.3551ZM689.852 70H695.997V68H689.852V70ZM686.816 68.2929L680.768 62.2449L679.353 63.6591L685.401 69.7071L686.816 68.2929ZM680.06 61.952H650.877V63.952H680.06V61.952ZM650.169 62.2449L644.121 68.2929L645.536 69.7071L651.584 63.6591L650.169 62.2449ZM644.828 70H686.109V68H644.828V70ZM696.997 6.984V0.0719948H694.997V6.984H696.997ZM695.997 -0.928005H667.101V1.07199H695.997V-0.928005ZM666.388 0.774139L673.204 7.68614L674.629 6.28185L667.813 -0.63015L666.388 0.774139ZM673.917 7.984H695.997V5.984H673.917V7.984ZM775.361 69V70H776.361V69H775.361ZM758.369 69L757.656 69.7016L757.95 70H758.369V69ZM733.697 43.944L734.409 43.2424L734.115 42.944H733.697V43.944ZM723.521 43.944V42.944H722.521V43.944H723.521ZM723.521 69V70H724.521V69H723.521ZM705.569 69H704.569V70H705.569V69ZM705.569 45.768V44.768H704.569V45.768H705.569ZM706.913 45.768V46.768H707.327L707.62 46.4751L706.913 45.768ZM716.321 36.36L717.028 37.0671L717.321 36.7742V36.36H716.321ZM716.321 4.296H717.321V3.88178L717.028 3.58889L716.321 4.296ZM712.097 0.0719948V-0.928005H709.683L711.39 0.7791L712.097 0.0719948ZM741.185 0.0719948L741.892 -0.635113L741.599 -0.928005H741.185V0.0719948ZM750.497 9.384L749.79 10.0911L750.083 10.384H750.497V9.384ZM775.361 9.384H776.361V8.384H775.361V9.384ZM775.361 25.8L776.058 26.5169L776.361 26.2224V25.8H775.361ZM757.985 42.696L757.288 41.9791L756.556 42.6901L757.282 43.4071L757.985 42.696ZM766.433 51.048L765.73 51.7591L766.022 52.048H766.433V51.048ZM775.361 51.048H776.361V50.048H775.361V51.048ZM705.569 43.368H704.569V45.7822L706.276 44.0751L705.569 43.368ZM705.569 0.0719948V-0.928005H704.569V0.0719948H705.569ZM708.353 0.0719948L709.06 -0.635113L708.767 -0.928005H708.353V0.0719948ZM714.017 5.736H715.017V5.32178L714.724 5.02889L714.017 5.736ZM714.017 34.92L714.724 35.6271L715.017 35.3342V34.92H714.017ZM775.361 7.08V8.08H776.361V7.08H775.361ZM751.937 7.08L751.23 7.7871L751.523 8.08H751.937V7.08ZM744.929 0.0719948V-0.928005H742.515L744.222 0.7791L744.929 0.0719948ZM775.361 0.0719948H776.361V-0.928005H775.361V0.0719948ZM757.409 26.088V27.088H758.409V26.088H757.409ZM757.409 18.216H758.409V17.216H757.409V18.216ZM723.521 18.216V17.216H722.521V18.216H723.521ZM723.521 26.088H722.521V27.088H723.521V26.088ZM775.361 68H758.369V70H775.361V68ZM759.081 68.2984L734.409 43.2424L732.984 44.6456L757.656 69.7016L759.081 68.2984ZM733.697 42.944H723.521V44.944H733.697V42.944ZM722.521 43.944V69H724.521V43.944H722.521ZM723.521 68H705.569V70H723.521V68ZM706.569 69V45.768H704.569V69H706.569ZM705.569 46.768H706.913V44.768H705.569V46.768ZM707.62 46.4751L717.028 37.0671L715.614 35.6529L706.206 45.0609L707.62 46.4751ZM717.321 36.36V4.296H715.321V36.36H717.321ZM717.028 3.58889L712.804 -0.635111L711.39 0.7791L715.614 5.0031L717.028 3.58889ZM712.097 1.07199H741.185V-0.928005H712.097V1.07199ZM740.478 0.779102L749.79 10.0911L751.204 8.67689L741.892 -0.635113L740.478 0.779102ZM750.497 10.384H775.361V8.384H750.497V10.384ZM774.361 9.384V25.8H776.361V9.384H774.361ZM774.664 25.0831L757.288 41.9791L758.682 43.4129L776.058 26.5169L774.664 25.0831ZM757.282 43.4071L765.73 51.7591L767.136 50.3369L758.688 41.9849L757.282 43.4071ZM766.433 52.048H775.361V50.048H766.433V52.048ZM774.361 51.048V69H776.361V51.048H774.361ZM706.569 43.368V0.0719948H704.569V43.368H706.569ZM705.569 1.07199H708.353V-0.928005H705.569V1.07199ZM707.646 0.779102L713.31 6.4431L714.724 5.02889L709.06 -0.635113L707.646 0.779102ZM713.017 5.736V34.92H715.017V5.736H713.017ZM713.31 34.2129L704.862 42.6609L706.276 44.0751L714.724 35.6271L713.31 34.2129ZM775.361 6.08H751.937V8.08H775.361V6.08ZM752.644 6.37289L745.636 -0.635111L744.222 0.7791L751.23 7.7871L752.644 6.37289ZM744.929 1.07199H775.361V-0.928005H744.929V1.07199ZM774.361 0.0719948V7.08H776.361V0.0719948H774.361ZM758.409 26.088V18.216H756.409V26.088H758.409ZM757.409 17.216H723.521V19.216H757.409V17.216ZM722.521 18.216V26.088H724.521V18.216H722.521ZM723.521 27.088H757.409V25.088H723.521V27.088ZM792.847 77.064V78.064H793.399L793.693 77.5973L792.847 77.064ZM795.631 72.648L796.477 73.1813L796.631 72.9369V72.648H795.631ZM795.631 65.064H796.631V64.064H795.631V65.064ZM784.975 65.064V64.064H783.975V65.064H784.975ZM784.975 71.88H783.975V72.88H784.975V71.88ZM791.407 71.88H792.407V70.88H791.407V71.88ZM791.407 77.064H790.407V78.064H791.407V77.064ZM793.693 77.5973L796.477 73.1813L794.785 72.1147L792.001 76.5307L793.693 77.5973ZM796.631 72.648V65.064H794.631V72.648H796.631ZM795.631 64.064H784.975V66.064H795.631V64.064ZM783.975 65.064V71.88H785.975V65.064H783.975ZM784.975 72.88H791.407V70.88H784.975V72.88ZM790.407 71.88V77.064H792.407V71.88H790.407ZM791.407 78.064H792.847V76.064H791.407V78.064ZM60.376 179V180H61.376V179H60.376ZM60.376 169.4L59.6689 168.693L59.376 168.986V169.4H60.376ZM69.784 159.992V158.992H69.3698L69.0769 159.285L69.784 159.992ZM74.392 159.992V160.992H75.392V159.992H74.392ZM74.392 153.752H75.392V153.329L75.0879 153.034L74.392 153.752ZM55.864 135.8L56.5599 135.082L56.269 134.8H55.864V135.8ZM22.552 135.8H21.552V136.8H22.552V135.8ZM22.552 128.024V127.024H21.552V128.024H22.552ZM65.848 128.024V129.024H66.848V128.024H65.848ZM65.848 110.072H66.848V109.072H65.848V110.072ZM43.384 110.072V109.072H42.384V110.072H43.384ZM43.384 111.512L44.0911 112.219L44.384 111.926V111.512H43.384ZM33.976 120.92V121.92H34.3902L34.6831 121.627L33.976 120.92ZM4.6 120.92V119.92H3.6V120.92H4.6ZM4.6 135.8H3.6V136.223L3.90415 136.518L4.6 135.8ZM23.128 153.752L22.4321 154.47L22.723 154.752H23.128V153.752ZM56.44 153.752H57.44V152.752H56.44V153.752ZM56.44 161.048V162.048H57.44V161.048H56.44ZM4.6 161.048V160.048H3.6V161.048H4.6ZM4.6 179H3.6V180H4.6V179ZM74.392 179V180H75.392V179H74.392ZM74.392 162.296H75.392V161.296H74.392V162.296ZM71.224 162.296V161.296H70.8098L70.5169 161.589L71.224 162.296ZM62.68 170.84L61.9729 170.133L61.68 170.426V170.84H62.68ZM62.68 179H61.68V180H62.68V179ZM32.536 118.616V119.616H32.9502L33.2431 119.323L32.536 118.616ZM41.08 110.072L41.7871 110.779L43.4942 109.072H41.08V110.072ZM4.6 110.072V109.072H3.6V110.072H4.6ZM4.6 118.616H3.6V119.616H4.6V118.616ZM61.376 179V169.4H59.376V179H61.376ZM61.0831 170.107L70.4911 160.699L69.0769 159.285L59.6689 168.693L61.0831 170.107ZM69.784 160.992H74.392V158.992H69.784V160.992ZM75.392 159.992V153.752H73.392V159.992H75.392ZM75.0879 153.034L56.5599 135.082L55.1681 136.518L73.6961 154.47L75.0879 153.034ZM55.864 134.8H22.552V136.8H55.864V134.8ZM23.552 135.8V128.024H21.552V135.8H23.552ZM22.552 129.024H65.848V127.024H22.552V129.024ZM66.848 128.024V110.072H64.848V128.024H66.848ZM65.848 109.072H43.384V111.072H65.848V109.072ZM42.384 110.072V111.512H44.384V110.072H42.384ZM42.6769 110.805L33.2689 120.213L34.6831 121.627L44.0911 112.219L42.6769 110.805ZM33.976 119.92H4.6V121.92H33.976V119.92ZM3.6 120.92V135.8H5.6V120.92H3.6ZM3.90415 136.518L22.4321 154.47L23.8239 153.034L5.29586 135.082L3.90415 136.518ZM23.128 154.752H56.44V152.752H23.128V154.752ZM55.44 153.752V161.048H57.44V153.752H55.44ZM56.44 160.048H4.6V162.048H56.44V160.048ZM3.6 161.048V179H5.6V161.048H3.6ZM4.6 180H60.376V178H4.6V180ZM75.392 179V162.296H73.392V179H75.392ZM74.392 161.296H71.224V163.296H74.392V161.296ZM70.5169 161.589L61.9729 170.133L63.3871 171.547L71.9311 163.003L70.5169 161.589ZM61.68 170.84V179H63.68V170.84H61.68ZM62.68 180H74.392V178H62.68V180ZM33.2431 119.323L41.7871 110.779L40.3729 109.365L31.8289 117.909L33.2431 119.323ZM41.08 109.072H4.6V111.072H41.08V109.072ZM3.6 110.072V118.616H5.6V110.072H3.6ZM4.6 119.616H32.536V117.616H4.6V119.616ZM118.662 179V180H119.076L119.369 179.707L118.662 179ZM126.63 171.032V170.032H126.216L125.923 170.325L126.63 171.032ZM142.566 171.032V172.032H143.566V171.032H142.566ZM142.566 161.048H143.566V160.048H142.566V161.048ZM101.958 161.048H100.958V162.048H101.958V161.048ZM101.958 128.024V127.024H100.958V128.024H101.958ZM135.654 128.024H136.654V127.024H135.654V128.024ZM135.654 143.672H134.654V144.672H135.654V143.672ZM153.606 143.672V144.672H154.606V143.672H153.606ZM153.606 110.072H154.606V109.072H153.606V110.072ZM115.782 110.072V109.072H115.368L115.075 109.365L115.782 110.072ZM107.142 118.712V119.712H107.556L107.849 119.419L107.142 118.712ZM84.0062 118.712V117.712H83.0062V118.712H84.0062ZM84.0062 179H83.0062V180H84.0062V179ZM142.566 179V180H143.566V179H142.566ZM142.566 173.24H143.566V172.24H142.566V173.24ZM128.07 173.24V172.24H127.651L127.357 172.539L128.07 173.24ZM122.406 179L121.693 178.299L120.02 180H122.406V179ZM105.702 116.408V117.408H106.112L106.404 117.12L105.702 116.408ZM112.134 110.072L112.836 110.784L114.574 109.072H112.134V110.072ZM84.0062 110.072V109.072H83.0062V110.072H84.0062ZM84.0062 116.408H83.0062V117.408H84.0062V116.408ZM119.369 179.707L127.337 171.739L125.923 170.325L117.955 178.293L119.369 179.707ZM126.63 172.032H142.566V170.032H126.63V172.032ZM143.566 171.032V161.048H141.566V171.032H143.566ZM142.566 160.048H101.958V162.048H142.566V160.048ZM102.958 161.048V128.024H100.958V161.048H102.958ZM101.958 129.024H135.654V127.024H101.958V129.024ZM134.654 128.024V143.672H136.654V128.024H134.654ZM135.654 144.672H153.606V142.672H135.654V144.672ZM154.606 143.672V110.072H152.606V143.672H154.606ZM153.606 109.072H115.782V111.072H153.606V109.072ZM115.075 109.365L106.435 118.005L107.849 119.419L116.489 110.779L115.075 109.365ZM107.142 117.712H84.0062V119.712H107.142V117.712ZM83.0062 118.712V179H85.0062V118.712H83.0062ZM84.0062 180H118.662V178H84.0062V180ZM143.566 179V173.24H141.566V179H143.566ZM142.566 172.24H128.07V174.24H142.566V172.24ZM127.357 172.539L121.693 178.299L123.119 179.701L128.783 173.941L127.357 172.539ZM122.406 180H142.566V178H122.406V180ZM106.404 117.12L112.836 110.784L111.432 109.36L105 115.696L106.404 117.12ZM112.134 109.072H84.0062V111.072H112.134V109.072ZM83.0062 110.072V116.408H85.0062V110.072H83.0062ZM84.0062 117.408H105.702V115.408H84.0062V117.408ZM181.177 179V180H182.177V179H181.177ZM163.225 179H162.225V180H163.225V179ZM163.225 110.072V109.072H162.225V110.072H163.225ZM181.177 110.072H182.177V109.072H181.177V110.072ZM181.177 119.096V120.096H182.177V119.096H181.177ZM178.681 119.096V118.096H178.267L177.974 118.389L178.681 119.096ZM169.273 128.504L168.566 127.797L168.273 128.09V128.504H169.273ZM169.273 160.568H168.273V160.982L168.566 161.275L169.273 160.568ZM178.681 169.976L177.974 170.683L178.267 170.976H178.681V169.976ZM181.177 169.976H182.177V168.976H181.177V169.976ZM181.177 167.672V168.672H182.177V167.672H181.177ZM180.121 167.672L179.414 168.379L179.707 168.672H180.121V167.672ZM171.577 159.128H170.577V159.542L170.87 159.835L171.577 159.128ZM171.577 129.944L170.87 129.237L170.577 129.53V129.944H171.577ZM180.121 121.4V120.4H179.707L179.414 120.693L180.121 121.4ZM181.177 121.4H182.177V120.4H181.177V121.4ZM181.177 178H163.225V180H181.177V178ZM164.225 179V110.072H162.225V179H164.225ZM163.225 111.072H181.177V109.072H163.225V111.072ZM180.177 110.072V119.096H182.177V110.072H180.177ZM181.177 118.096H178.681V120.096H181.177V118.096ZM177.974 118.389L168.566 127.797L169.98 129.211L179.388 119.803L177.974 118.389ZM168.273 128.504V160.568H170.273V128.504H168.273ZM168.566 161.275L177.974 170.683L179.388 169.269L169.98 159.861L168.566 161.275ZM178.681 170.976H181.177V168.976H178.681V170.976ZM180.177 169.976V179H182.177V169.976H180.177ZM181.177 166.672H180.121V168.672H181.177V166.672ZM180.828 166.965L172.284 158.421L170.87 159.835L179.414 168.379L180.828 166.965ZM172.577 159.128V129.944H170.577V159.128H172.577ZM172.284 130.651L180.828 122.107L179.414 120.693L170.87 129.237L172.284 130.651ZM180.121 122.4H181.177V120.4H180.121V122.4ZM180.177 121.4V167.672H182.177V121.4H180.177ZM246.564 179V180H247.564V179H246.564ZM246.564 169.4L245.856 168.693L245.564 168.986V169.4H246.564ZM255.971 159.992V158.992H255.557L255.264 159.285L255.971 159.992ZM260.579 159.992V160.992H261.579V159.992H260.579ZM260.579 153.752H261.579V153.329L261.275 153.034L260.579 153.752ZM242.051 135.8L242.747 135.082L242.456 134.8H242.051V135.8ZM208.74 135.8H207.74V136.8H208.74V135.8ZM208.74 128.024V127.024H207.74V128.024H208.74ZM252.035 128.024V129.024H253.035V128.024H252.035ZM252.035 110.072H253.035V109.072H252.035V110.072ZM229.572 110.072V109.072H228.572V110.072H229.572ZM229.572 111.512L230.279 112.219L230.572 111.926V111.512H229.572ZM220.163 120.92V121.92H220.578L220.871 121.627L220.163 120.92ZM190.788 120.92V119.92H189.788V120.92H190.788ZM190.788 135.8H189.788V136.223L190.092 136.518L190.788 135.8ZM209.316 153.752L208.62 154.47L208.911 154.752H209.316V153.752ZM242.628 153.752H243.628V152.752H242.628V153.752ZM242.628 161.048V162.048H243.628V161.048H242.628ZM190.788 161.048V160.048H189.788V161.048H190.788ZM190.788 179H189.788V180H190.788V179ZM260.579 179V180H261.579V179H260.579ZM260.579 162.296H261.579V161.296H260.579V162.296ZM257.411 162.296V161.296H256.997L256.704 161.589L257.411 162.296ZM248.868 170.84L248.16 170.133L247.868 170.426V170.84H248.868ZM248.868 179H247.868V180H248.868V179ZM218.724 118.616V119.616H219.138L219.431 119.323L218.724 118.616ZM227.268 110.072L227.975 110.779L229.682 109.072H227.268V110.072ZM190.788 110.072V109.072H189.788V110.072H190.788ZM190.788 118.616H189.788V119.616H190.788V118.616ZM247.564 179V169.4H245.564V179H247.564ZM247.271 170.107L256.679 160.699L255.264 159.285L245.856 168.693L247.271 170.107ZM255.971 160.992H260.579V158.992H255.971V160.992ZM261.579 159.992V153.752H259.579V159.992H261.579ZM261.275 153.034L242.747 135.082L241.356 136.518L259.884 154.47L261.275 153.034ZM242.051 134.8H208.74V136.8H242.051V134.8ZM209.74 135.8V128.024H207.74V135.8H209.74ZM208.74 129.024H252.035V127.024H208.74V129.024ZM253.035 128.024V110.072H251.035V128.024H253.035ZM252.035 109.072H229.572V111.072H252.035V109.072ZM228.572 110.072V111.512H230.572V110.072H228.572ZM228.864 110.805L219.456 120.213L220.871 121.627L230.279 112.219L228.864 110.805ZM220.163 119.92H190.788V121.92H220.163V119.92ZM189.788 120.92V135.8H191.788V120.92H189.788ZM190.092 136.518L208.62 154.47L210.011 153.034L191.483 135.082L190.092 136.518ZM209.316 154.752H242.628V152.752H209.316V154.752ZM241.628 153.752V161.048H243.628V153.752H241.628ZM242.628 160.048H190.788V162.048H242.628V160.048ZM189.788 161.048V179H191.788V161.048H189.788ZM190.788 180H246.564V178H190.788V180ZM261.579 179V162.296H259.579V179H261.579ZM260.579 161.296H257.411V163.296H260.579V161.296ZM256.704 161.589L248.16 170.133L249.575 171.547L258.119 163.003L256.704 161.589ZM247.868 170.84V179H249.868V170.84H247.868ZM248.868 180H260.579V178H248.868V180ZM219.431 119.323L227.975 110.779L226.56 109.365L218.016 117.909L219.431 119.323ZM227.268 109.072H190.788V111.072H227.268V109.072ZM189.788 110.072V118.616H191.788V110.072H189.788ZM190.788 119.616H218.724V117.616H190.788V119.616ZM325.97 179V180H326.97V179H325.97ZM325.97 169.4L325.263 168.693L324.97 168.986V169.4H325.97ZM335.378 159.992V158.992H334.964L334.671 159.285L335.378 159.992ZM339.986 159.992V160.992H340.986V159.992H339.986ZM339.986 153.752H340.986V153.329L340.682 153.034L339.986 153.752ZM321.458 135.8L322.154 135.082L321.863 134.8H321.458V135.8ZM288.146 135.8H287.146V136.8H288.146V135.8ZM288.146 128.024V127.024H287.146V128.024H288.146ZM331.442 128.024V129.024H332.442V128.024H331.442ZM331.442 110.072H332.442V109.072H331.442V110.072ZM308.978 110.072V109.072H307.978V110.072H308.978ZM308.978 111.512L309.685 112.219L309.978 111.926V111.512H308.978ZM299.57 120.92V121.92H299.984L300.277 121.627L299.57 120.92ZM270.194 120.92V119.92H269.194V120.92H270.194ZM270.194 135.8H269.194V136.223L269.498 136.518L270.194 135.8ZM288.722 153.752L288.026 154.47L288.317 154.752H288.722V153.752ZM322.034 153.752H323.034V152.752H322.034V153.752ZM322.034 161.048V162.048H323.034V161.048H322.034ZM270.194 161.048V160.048H269.194V161.048H270.194ZM270.194 179H269.194V180H270.194V179ZM339.986 179V180H340.986V179H339.986ZM339.986 162.296H340.986V161.296H339.986V162.296ZM336.818 162.296V161.296H336.404L336.111 161.589L336.818 162.296ZM328.274 170.84L327.567 170.133L327.274 170.426V170.84H328.274ZM328.274 179H327.274V180H328.274V179ZM298.13 118.616V119.616H298.544L298.837 119.323L298.13 118.616ZM306.674 110.072L307.381 110.779L309.088 109.072H306.674V110.072ZM270.194 110.072V109.072H269.194V110.072H270.194ZM270.194 118.616H269.194V119.616H270.194V118.616ZM326.97 179V169.4H324.97V179H326.97ZM326.677 170.107L336.085 160.699L334.671 159.285L325.263 168.693L326.677 170.107ZM335.378 160.992H339.986V158.992H335.378V160.992ZM340.986 159.992V153.752H338.986V159.992H340.986ZM340.682 153.034L322.154 135.082L320.762 136.518L339.29 154.47L340.682 153.034ZM321.458 134.8H288.146V136.8H321.458V134.8ZM289.146 135.8V128.024H287.146V135.8H289.146ZM288.146 129.024H331.442V127.024H288.146V129.024ZM332.442 128.024V110.072H330.442V128.024H332.442ZM331.442 109.072H308.978V111.072H331.442V109.072ZM307.978 110.072V111.512H309.978V110.072H307.978ZM308.271 110.805L298.863 120.213L300.277 121.627L309.685 112.219L308.271 110.805ZM299.57 119.92H270.194V121.92H299.57V119.92ZM269.194 120.92V135.8H271.194V120.92H269.194ZM269.498 136.518L288.026 154.47L289.418 153.034L270.89 135.082L269.498 136.518ZM288.722 154.752H322.034V152.752H288.722V154.752ZM321.034 153.752V161.048H323.034V153.752H321.034ZM322.034 160.048H270.194V162.048H322.034V160.048ZM269.194 161.048V179H271.194V161.048H269.194ZM270.194 180H325.97V178H270.194V180ZM340.986 179V162.296H338.986V179H340.986ZM339.986 161.296H336.818V163.296H339.986V161.296ZM336.111 161.589L327.567 170.133L328.981 171.547L337.525 163.003L336.111 161.589ZM327.274 170.84V179H329.274V170.84H327.274ZM328.274 180H339.986V178H328.274V180ZM298.837 119.323L307.381 110.779L305.967 109.365L297.423 117.909L298.837 119.323ZM306.674 109.072H270.194V111.072H306.674V109.072ZM269.194 110.072V118.616H271.194V110.072H269.194ZM270.194 119.616H298.13V117.616H270.194V119.616ZM419.2 179V180H420.2V179H419.2ZM409.792 179H408.792V180H409.792V179ZM409.792 177.08H410.792V176.666L410.499 176.373L409.792 177.08ZM400.384 167.672L401.091 166.965L400.798 166.672H400.384V167.672ZM368.416 167.672V166.672H368.002L367.709 166.965L368.416 167.672ZM359.008 177.08L358.301 176.373L358.008 176.666V177.08H359.008ZM359.008 179V180H360.008V179H359.008ZM349.6 179H348.6V180H349.6V179ZM349.6 110.072V109.072H348.6V110.072H349.6ZM359.008 110.072H360.008V109.072H359.008V110.072ZM359.008 111.992H358.008V112.406L358.301 112.699L359.008 111.992ZM368.416 121.4L367.709 122.107L368.002 122.4H368.416V121.4ZM400.384 121.4V122.4H400.798L401.091 122.107L400.384 121.4ZM409.792 111.992L410.499 112.699L410.792 112.406V111.992H409.792ZM409.792 110.072V109.072H408.792V110.072H409.792ZM419.2 110.072H420.2V109.072H419.2V110.072ZM407.488 179V180H408.488V179H407.488ZM361.216 179H360.216V180H361.216V179ZM361.216 178.52L360.513 177.809L360.216 178.103V178.52H361.216ZM369.856 169.976V168.976H369.445L369.153 169.265L369.856 169.976ZM398.944 169.976L399.651 169.269L399.358 168.976H398.944V169.976ZM407.488 178.52H408.488V178.106L408.195 177.813L407.488 178.52ZM398.944 119.096V120.096H399.358L399.651 119.803L398.944 119.096ZM369.856 119.096L369.153 119.807L369.445 120.096H369.856V119.096ZM361.216 110.552H360.216V110.969L360.513 111.263L361.216 110.552ZM361.216 110.072V109.072H360.216V110.072H361.216ZM407.488 110.072H408.488V109.072H407.488V110.072ZM407.488 110.552L408.195 111.259L408.488 110.966V110.552H407.488ZM401.248 161.048V162.048H402.248V161.048H401.248ZM401.248 128.024H402.248V127.024H401.248V128.024ZM367.456 128.024V127.024H366.456V128.024H367.456ZM367.456 161.048H366.456V162.048H367.456V161.048ZM419.2 178H409.792V180H419.2V178ZM410.792 179V177.08H408.792V179H410.792ZM410.499 176.373L401.091 166.965L399.677 168.379L409.085 177.787L410.499 176.373ZM400.384 166.672H368.416V168.672H400.384V166.672ZM367.709 166.965L358.301 176.373L359.715 177.787L369.123 168.379L367.709 166.965ZM358.008 177.08V179H360.008V177.08H358.008ZM359.008 178H349.6V180H359.008V178ZM350.6 179V110.072H348.6V179H350.6ZM349.6 111.072H359.008V109.072H349.6V111.072ZM358.008 110.072V111.992H360.008V110.072H358.008ZM358.301 112.699L367.709 122.107L369.123 120.693L359.715 111.285L358.301 112.699ZM368.416 122.4H400.384V120.4H368.416V122.4ZM401.091 122.107L410.499 112.699L409.085 111.285L399.677 120.693L401.091 122.107ZM410.792 111.992V110.072H408.792V111.992H410.792ZM409.792 111.072H419.2V109.072H409.792V111.072ZM418.2 110.072V179H420.2V110.072H418.2ZM407.488 178H361.216V180H407.488V178ZM362.216 179V178.52H360.216V179H362.216ZM361.919 179.231L370.559 170.687L369.153 169.265L360.513 177.809L361.919 179.231ZM369.856 170.976H398.944V168.976H369.856V170.976ZM398.237 170.683L406.781 179.227L408.195 177.813L399.651 169.269L398.237 170.683ZM406.488 178.52V179H408.488V178.52H406.488ZM398.944 118.096H369.856V120.096H398.944V118.096ZM370.559 118.385L361.919 109.841L360.513 111.263L369.153 119.807L370.559 118.385ZM362.216 110.552V110.072H360.216V110.552H362.216ZM361.216 111.072H407.488V109.072H361.216V111.072ZM406.488 110.072V110.552H408.488V110.072H406.488ZM406.781 109.845L398.237 118.389L399.651 119.803L408.195 111.259L406.781 109.845ZM402.248 161.048V128.024H400.248V161.048H402.248ZM401.248 127.024H367.456V129.024H401.248V127.024ZM366.456 128.024V161.048H368.456V128.024H366.456ZM367.456 162.048H401.248V160.048H367.456V162.048ZM498.611 179V180H499.611V179H498.611ZM481.619 179L480.906 179.702L481.2 180H481.619V179ZM456.947 153.944L457.659 153.242L457.366 152.944H456.947V153.944ZM446.771 153.944V152.944H445.771V153.944H446.771ZM446.771 179V180H447.771V179H446.771ZM428.819 179H427.819V180H428.819V179ZM428.819 155.768V154.768H427.819V155.768H428.819ZM430.163 155.768V156.768H430.577L430.87 156.475L430.163 155.768ZM439.571 146.36L440.278 147.067L440.571 146.774V146.36H439.571ZM439.571 114.296H440.571V113.882L440.278 113.589L439.571 114.296ZM435.347 110.072V109.072H432.933L434.64 110.779L435.347 110.072ZM464.435 110.072L465.142 109.365L464.849 109.072H464.435V110.072ZM473.747 119.384L473.04 120.091L473.333 120.384H473.747V119.384ZM498.611 119.384H499.611V118.384H498.611V119.384ZM498.611 135.8L499.308 136.517L499.611 136.222V135.8H498.611ZM481.235 152.696L480.538 151.979L479.806 152.69L480.532 153.407L481.235 152.696ZM489.683 161.048L488.98 161.759L489.272 162.048H489.683V161.048ZM498.611 161.048H499.611V160.048H498.611V161.048ZM428.819 153.368H427.819V155.782L429.526 154.075L428.819 153.368ZM428.819 110.072V109.072H427.819V110.072H428.819ZM431.603 110.072L432.31 109.365L432.017 109.072H431.603V110.072ZM437.267 115.736H438.267V115.322L437.974 115.029L437.267 115.736ZM437.267 144.92L437.974 145.627L438.267 145.334V144.92H437.267ZM498.611 117.08V118.08H499.611V117.08H498.611ZM475.187 117.08L474.48 117.787L474.773 118.08H475.187V117.08ZM468.179 110.072V109.072H465.765L467.472 110.779L468.179 110.072ZM498.611 110.072H499.611V109.072H498.611V110.072ZM480.659 136.088V137.088H481.659V136.088H480.659ZM480.659 128.216H481.659V127.216H480.659V128.216ZM446.771 128.216V127.216H445.771V128.216H446.771ZM446.771 136.088H445.771V137.088H446.771V136.088ZM498.611 178H481.619V180H498.611V178ZM482.331 178.298L457.659 153.242L456.234 154.646L480.906 179.702L482.331 178.298ZM456.947 152.944H446.771V154.944H456.947V152.944ZM445.771 153.944V179H447.771V153.944H445.771ZM446.771 178H428.819V180H446.771V178ZM429.819 179V155.768H427.819V179H429.819ZM428.819 156.768H430.163V154.768H428.819V156.768ZM430.87 156.475L440.278 147.067L438.864 145.653L429.456 155.061L430.87 156.475ZM440.571 146.36V114.296H438.571V146.36H440.571ZM440.278 113.589L436.054 109.365L434.64 110.779L438.864 115.003L440.278 113.589ZM435.347 111.072H464.435V109.072H435.347V111.072ZM463.728 110.779L473.04 120.091L474.454 118.677L465.142 109.365L463.728 110.779ZM473.747 120.384H498.611V118.384H473.747V120.384ZM497.611 119.384V135.8H499.611V119.384H497.611ZM497.914 135.083L480.538 151.979L481.932 153.413L499.308 136.517L497.914 135.083ZM480.532 153.407L488.98 161.759L490.386 160.337L481.938 151.985L480.532 153.407ZM489.683 162.048H498.611V160.048H489.683V162.048ZM497.611 161.048V179H499.611V161.048H497.611ZM429.819 153.368V110.072H427.819V153.368H429.819ZM428.819 111.072H431.603V109.072H428.819V111.072ZM430.896 110.779L436.56 116.443L437.974 115.029L432.31 109.365L430.896 110.779ZM436.267 115.736V144.92H438.267V115.736H436.267ZM436.56 144.213L428.112 152.661L429.526 154.075L437.974 145.627L436.56 144.213ZM498.611 116.08H475.187V118.08H498.611V116.08ZM475.894 116.373L468.886 109.365L467.472 110.779L474.48 117.787L475.894 116.373ZM468.179 111.072H498.611V109.072H468.179V111.072ZM497.611 110.072V117.08H499.611V110.072H497.611ZM481.659 136.088V128.216H479.659V136.088H481.659ZM480.659 127.216H446.771V129.216H480.659V127.216ZM445.771 128.216V136.088H447.771V128.216H445.771ZM446.771 137.088H480.659V135.088H446.771V137.088ZM564.001 179V180H565.001V179H564.001ZM564.001 169.4L563.294 168.693L563.001 168.986V169.4H564.001ZM573.409 159.992V158.992H572.995L572.702 159.285L573.409 159.992ZM578.017 159.992V160.992H579.017V159.992H578.017ZM578.017 153.752H579.017V153.329L578.713 153.034L578.017 153.752ZM559.489 135.8L560.185 135.082L559.894 134.8H559.489V135.8ZM526.177 135.8H525.177V136.8H526.177V135.8ZM526.177 128.024V127.024H525.177V128.024H526.177ZM569.473 128.024V129.024H570.473V128.024H569.473ZM569.473 110.072H570.473V109.072H569.473V110.072ZM547.009 110.072V109.072H546.009V110.072H547.009ZM547.009 111.512L547.716 112.219L548.009 111.926V111.512H547.009ZM537.601 120.92V121.92H538.015L538.308 121.627L537.601 120.92ZM508.225 120.92V119.92H507.225V120.92H508.225ZM508.225 135.8H507.225V136.223L507.529 136.518L508.225 135.8ZM526.753 153.752L526.057 154.47L526.348 154.752H526.753V153.752ZM560.065 153.752H561.065V152.752H560.065V153.752ZM560.065 161.048V162.048H561.065V161.048H560.065ZM508.225 161.048V160.048H507.225V161.048H508.225ZM508.225 179H507.225V180H508.225V179ZM578.017 179V180H579.017V179H578.017ZM578.017 162.296H579.017V161.296H578.017V162.296ZM574.849 162.296V161.296H574.435L574.142 161.589L574.849 162.296ZM566.305 170.84L565.598 170.133L565.305 170.426V170.84H566.305ZM566.305 179H565.305V180H566.305V179ZM536.161 118.616V119.616H536.575L536.868 119.323L536.161 118.616ZM544.705 110.072L545.412 110.779L547.119 109.072H544.705V110.072ZM508.225 110.072V109.072H507.225V110.072H508.225ZM508.225 118.616H507.225V119.616H508.225V118.616ZM565.001 179V169.4H563.001V179H565.001ZM564.708 170.107L574.116 160.699L572.702 159.285L563.294 168.693L564.708 170.107ZM573.409 160.992H578.017V158.992H573.409V160.992ZM579.017 159.992V153.752H577.017V159.992H579.017ZM578.713 153.034L560.185 135.082L558.793 136.518L577.321 154.47L578.713 153.034ZM559.489 134.8H526.177V136.8H559.489V134.8ZM527.177 135.8V128.024H525.177V135.8H527.177ZM526.177 129.024H569.473V127.024H526.177V129.024ZM570.473 128.024V110.072H568.473V128.024H570.473ZM569.473 109.072H547.009V111.072H569.473V109.072ZM546.009 110.072V111.512H548.009V110.072H546.009ZM546.302 110.805L536.894 120.213L538.308 121.627L547.716 112.219L546.302 110.805ZM537.601 119.92H508.225V121.92H537.601V119.92ZM507.225 120.92V135.8H509.225V120.92H507.225ZM507.529 136.518L526.057 154.47L527.449 153.034L508.921 135.082L507.529 136.518ZM526.753 154.752H560.065V152.752H526.753V154.752ZM559.065 153.752V161.048H561.065V153.752H559.065ZM560.065 160.048H508.225V162.048H560.065V160.048ZM507.225 161.048V179H509.225V161.048H507.225ZM508.225 180H564.001V178H508.225V180ZM579.017 179V162.296H577.017V179H579.017ZM578.017 161.296H574.849V163.296H578.017V161.296ZM574.142 161.589L565.598 170.133L567.012 171.547L575.556 163.003L574.142 161.589ZM565.305 170.84V179H567.305V170.84H565.305ZM566.305 180H578.017V178H566.305V180ZM536.868 119.323L545.412 110.779L543.998 109.365L535.454 117.909L536.868 119.323ZM544.705 109.072H508.225V111.072H544.705V109.072ZM507.225 110.072V118.616H509.225V110.072H507.225ZM508.225 119.616H536.161V117.616H508.225V119.616ZM598.287 181.88V182.88H599.287V181.88H598.287ZM598.287 175.064H599.287V174.064H598.287V175.064ZM587.631 175.064V174.064H586.631V175.064H587.631ZM587.631 181.88H586.631V182.88H587.631V181.88ZM599.287 181.88V175.064H597.287V181.88H599.287ZM598.287 174.064H587.631V176.064H598.287V174.064ZM586.631 175.064V181.88H588.631V175.064H586.631ZM587.631 182.88H598.287V180.88H587.631V182.88Z" fill="black"/>
</g>
<defs>
<filter id="filter0_d_2_33" x="0.600006" y="0.0720215" width="799.031" height="189.808" filterUnits="userSpaceOnUse" color-interpolation-filters="sRGB">
<feFlood flood-opacity="0" result="BackgroundImageFix"/>
<feColorMatrix in="SourceAlpha" type="matrix" values="0 0 0 0 0 0 0 0 0 0 0 0 0 0 0 0 0 0 127 0" result="hardAlpha"/>
<feOffset dy="4"/>
<feGaussianBlur stdDeviation="2"/>
<feComposite in2="hardAlpha" operator="out"/>
<feColorMatrix type="matrix" values="0 0 0 0 0 0 0 0 0 0 0 0 0 0 0 0 0 0 0.5 0"/>
<feBlend mode="normal" in2="BackgroundImageFix" result="effect1_dropShadow_2_33"/>
<feBlend mode="normal" in="SourceGraphic" in2="effect1_dropShadow_2_33" result="shape"/>
</filter>
</defs>
</svg>
